<svg width="20" height="20" viewBox="0 0 20 20" fill="none" xmlns="http://www.w3.org/2000/svg">
<g filter="url(#filter0_d)">
<path d="M7.07743 10.0907V9.74073H6.72743H4.8955V8.80439H6.72743H7.07743V8.45439V7.44866V7.09866H6.72743H4.8955V5.98359H6.72729H7.07729V5.63359V0.35H11.5937C12.6528 0.35 13.489 0.670548 14.1335 1.29173C14.7767 1.91242 15.1045 2.7129 15.1045 3.72434C15.1045 4.73667 14.7766 5.53706 14.1335 6.15698L14.1334 6.15706C13.4888 6.77876 12.653 7.09869 11.5937 7.09869H8.69597H8.34597V7.44869V8.45441V8.80441H8.69597H12.9229V9.74073H8.69612H8.34612V10.0907V11.65H7.07743V10.0907ZM6.80416 11.9231C6.85528 11.9744 6.92063 12 7.00023 12H8.42345C8.49732 12 8.56123 11.9744 8.61522 11.9231C8.6692 11.8721 8.69612 11.8069 8.69612 11.7273V10.4407V10.0907L6.80416 11.9231ZM4.8183 8.45439C4.7387 8.45439 4.67347 8.48003 4.62224 8.53131V5.71448C4.57114 5.76847 4.5455 5.83238 4.5455 5.90622V7.17598C4.5455 7.2556 4.57098 7.32084 4.62224 7.37207C4.67349 7.42335 4.73856 7.44866 4.8183 7.44866H6.37743H6.72743V7.79866V8.10439V8.45439H6.37743H4.8183ZM8.69597 1.46552H8.34597V1.81552V5.63375V5.98375H8.69597H11.4232C12.098 5.98375 12.676 5.78408 13.1221 5.35849C13.5689 4.93266 13.7846 4.37637 13.7846 3.72448C13.7846 3.07278 13.5689 2.51677 13.1222 2.09063L13.1221 2.09056C12.6761 1.66525 12.0981 1.46552 11.4232 1.46552H8.69597Z" fill="black" stroke="white" stroke-width="0.7"/>
</g>
<defs>
<filter id="filter0_d" x="0" y="0" width="20" height="20" filterUnits="userSpaceOnUse" color-interpolation-filters="sRGB">
<feFlood flood-opacity="0" result="BackgroundImageFix"/>
<feColorMatrix in="SourceAlpha" type="matrix" values="0 0 0 0 0 0 0 0 0 0 0 0 0 0 0 0 0 0 127 0"/>
<feOffset dy="4"/>
<feGaussianBlur stdDeviation="2"/>
<feColorMatrix type="matrix" values="0 0 0 0 0 0 0 0 0 0 0 0 0 0 0 0 0 0 0.25 0"/>
<feBlend mode="normal" in2="BackgroundImageFix" result="effect1_dropShadow"/>
<feBlend mode="normal" in="SourceGraphic" in2="effect1_dropShadow" result="shape"/>
</filter>
</defs>
</svg>
