<svg 
 xmlns="http://www.w3.org/2000/svg"
 xmlns:xlink="http://www.w3.org/1999/xlink"
 width="0.486in" height="0.403in">
<path fill-rule="evenodd"  fill="rgb(150, 150, 150)"
 d="M29.369,8.363 C29.172,8.585 28.899,8.698 28.625,8.698 C28.387,8.698 28.148,8.612 27.957,8.439 C27.546,8.067 27.512,7.429 27.882,7.014 L29.181,5.555 C29.550,5.142 30.182,5.106 30.593,5.479 C31.004,5.851 31.038,6.489 30.669,6.904 L29.369,8.363 ZM23.684,5.803 C23.509,6.156 23.157,6.359 22.790,6.359 C22.639,6.359 22.486,6.324 22.342,6.251 C21.848,6.001 21.650,5.394 21.898,4.897 L22.824,3.040 C23.071,2.544 23.671,2.342 24.167,2.593 C24.660,2.843 24.859,3.449 24.610,3.948 L23.684,5.803 ZM17.438,6.016 C16.886,6.016 16.438,5.564 16.438,5.007 L16.438,1.981 C16.438,1.424 16.886,0.972 17.438,0.972 C17.990,0.972 18.438,1.424 18.438,1.981 L18.438,5.007 C18.438,5.564 17.990,6.016 17.438,6.016 ZM12.125,6.251 C11.981,6.324 11.828,6.359 11.677,6.359 C11.310,6.359 10.958,6.156 10.783,5.803 L9.857,3.948 C9.608,3.449 9.807,2.843 10.301,2.593 C10.793,2.342 11.395,2.543 11.643,3.040 L12.569,4.897 C12.817,5.394 12.618,6.001 12.125,6.251 ZM5.842,8.698 C5.568,8.698 5.295,8.585 5.098,8.363 L3.798,6.904 C3.429,6.489 3.463,5.851 3.874,5.479 C4.284,5.106 4.916,5.141 5.286,5.555 L6.586,7.014 C6.955,7.429 6.921,8.067 6.510,8.439 C6.319,8.612 6.080,8.698 5.842,8.698 ZM17.500,7.277 C23.383,7.277 34.250,11.748 34.250,18.120 C34.250,24.492 23.383,28.964 17.500,28.964 C11.617,28.964 0.750,24.492 0.750,18.120 C0.750,11.748 11.617,7.277 17.500,7.277 ZM17.500,26.946 C23.057,26.946 32.250,22.821 32.250,18.120 C32.250,13.419 23.057,9.294 17.500,9.294 C11.943,9.294 2.750,13.419 2.750,18.120 C2.750,22.821 11.943,26.946 17.500,26.946 ZM17.500,12.909 C20.395,12.909 22.750,15.284 22.750,18.204 C22.750,21.125 20.395,23.500 17.500,23.500 C14.605,23.500 12.250,21.125 12.250,18.204 C12.250,15.284 14.605,12.909 17.500,12.909 ZM17.500,22.491 C19.843,22.491 21.750,20.568 21.750,18.204 C21.750,15.841 19.843,13.917 17.500,13.917 C15.157,13.917 13.250,15.841 13.250,18.204 C13.250,20.568 15.157,22.491 17.500,22.491 ZM15.333,18.204 C15.333,19.410 16.305,20.390 17.500,20.390 C17.777,20.390 18.000,20.615 18.000,20.894 C18.000,21.173 17.777,21.398 17.500,21.398 C15.754,21.398 14.333,19.965 14.333,18.204 C14.333,17.926 14.557,17.700 14.833,17.700 C15.109,17.700 15.333,17.926 15.333,18.204 ZM15.905,16.726 C15.806,16.834 15.671,16.889 15.537,16.889 C15.415,16.889 15.294,16.845 15.198,16.756 C14.995,16.567 14.982,16.248 15.169,16.043 C15.269,15.933 15.376,15.830 15.490,15.735 C15.704,15.558 16.019,15.589 16.195,15.804 C16.370,16.019 16.340,16.337 16.127,16.514 C16.048,16.580 15.973,16.650 15.905,16.726 Z"/>
</svg>