<svg 
 xmlns="http://www.w3.org/2000/svg"
 xmlns:xlink="http://www.w3.org/1999/xlink"
 width="0.514in" height="0.486in">
<path fill-rule="evenodd"  fill="rgb(255, 67, 30)"
 d="M35.866,14.433 C35.669,14.694 35.367,14.831 35.061,14.831 C34.850,14.831 34.638,14.765 34.457,14.630 L32.234,12.972 L32.234,29.635 C32.234,33.555 30.820,34.813 27.010,34.813 L9.898,34.813 C6.088,34.813 5.057,33.555 5.057,29.635 L5.057,12.686 L2.451,14.630 C2.270,14.765 2.057,14.831 1.846,14.831 C1.541,14.831 1.240,14.693 1.041,14.433 C0.707,13.992 0.797,13.366 1.240,13.035 L17.849,0.642 C17.866,0.629 17.886,0.627 17.904,0.616 C17.962,0.578 18.023,0.554 18.087,0.529 C18.146,0.506 18.203,0.480 18.265,0.468 C18.327,0.457 18.387,0.459 18.450,0.459 C18.516,0.459 18.581,0.456 18.646,0.469 C18.705,0.480 18.758,0.505 18.815,0.527 C18.882,0.552 18.946,0.577 19.006,0.617 C19.023,0.628 19.043,0.630 19.059,0.642 L35.667,13.035 C36.112,13.367 36.201,13.993 35.866,14.433 ZM15.123,24.346 L15.123,32.817 L22.169,32.817 L22.169,24.346 C22.169,23.354 21.977,23.335 20.870,23.335 L16.039,23.335 C14.931,23.335 15.123,23.354 15.123,24.346 ZM18.454,2.689 L6.889,11.319 C6.994,11.476 7.070,11.654 7.070,11.857 L7.070,29.635 C7.070,32.490 7.189,32.817 9.898,32.817 L14.116,32.817 L14.116,24.346 C14.116,22.627 14.577,22.337 16.039,22.337 L20.870,22.337 C22.331,22.337 23.175,22.627 23.175,24.346 L23.175,32.817 L27.010,32.817 C29.719,32.817 30.221,32.490 30.221,29.635 L30.221,11.857 C30.221,11.738 30.251,11.627 30.290,11.521 L18.454,2.689 ZM10.090,13.413 L10.090,18.843 C10.090,19.119 9.865,19.342 9.587,19.342 C9.309,19.342 9.084,19.119 9.084,18.843 L9.084,13.167 C9.084,13.011 9.060,12.865 9.185,12.771 L15.742,7.749 C15.963,7.582 16.255,7.623 16.424,7.842 C16.593,8.061 16.635,8.374 16.415,8.541 L10.090,13.413 ZM9.587,20.341 C9.865,20.341 10.090,20.564 10.090,20.840 L10.090,21.339 C10.090,21.614 9.865,21.838 9.587,21.838 C9.309,21.838 9.084,21.614 9.084,21.339 L9.084,20.840 C9.084,20.564 9.309,20.341 9.587,20.341 Z"/>
</svg>