<svg 
 xmlns="http://www.w3.org/2000/svg"
 xmlns:xlink="http://www.w3.org/1999/xlink"
 width="0.486in" height="0.472in">
<path fill-rule="evenodd"  fill="rgb(150, 150, 150)"
 d="M33.554,15.868 L27.811,21.563 L29.143,29.459 C29.349,30.677 28.812,31.925 27.774,32.635 C27.209,33.018 26.552,33.220 25.870,33.220 C25.317,33.220 24.767,33.083 24.279,32.823 L17.485,29.191 L10.694,32.822 C9.593,33.405 8.213,33.327 7.199,32.637 C6.158,31.924 5.621,30.676 5.828,29.457 L7.159,21.563 L1.417,15.868 C0.535,14.996 0.237,13.730 0.639,12.566 C1.040,11.413 2.053,10.583 3.285,10.402 L11.094,9.248 L14.487,2.253 C15.033,1.129 16.210,0.403 17.485,0.403 C18.762,0.403 19.938,1.129 20.483,2.253 L23.876,9.248 L31.685,10.402 C32.916,10.583 33.930,11.412 34.331,12.564 C34.733,13.731 34.435,14.996 33.554,15.868 ZM32.432,13.213 C32.278,12.769 31.878,12.446 31.391,12.374 L23.055,11.143 C22.727,11.095 22.443,10.887 22.299,10.590 L18.675,3.119 C18.462,2.680 17.995,2.396 17.485,2.396 C16.976,2.396 16.508,2.680 16.294,3.119 L12.672,10.589 C12.528,10.887 12.244,11.095 11.915,11.143 L3.580,12.374 C3.099,12.445 2.690,12.775 2.537,13.215 C2.387,13.650 2.501,14.126 2.835,14.456 L8.943,20.515 C9.173,20.743 9.278,21.067 9.224,21.385 L7.808,29.788 C7.728,30.255 7.931,30.715 8.336,30.993 C8.739,31.268 9.301,31.300 9.746,31.064 L17.009,27.180 C17.158,27.101 17.322,27.061 17.485,27.061 C17.649,27.061 17.813,27.101 17.961,27.180 L25.228,31.066 C25.665,31.299 26.228,31.269 26.638,30.991 C27.040,30.716 27.242,30.255 27.163,29.789 L25.746,21.385 C25.692,21.067 25.797,20.743 26.026,20.515 L32.136,14.457 C32.470,14.126 32.583,13.650 32.432,13.213 ZM14.482,13.189 C14.415,13.339 14.279,13.448 14.116,13.479 L8.425,14.570 C8.393,14.576 8.361,14.579 8.330,14.579 C8.094,14.579 7.884,14.413 7.838,14.174 C7.785,13.904 7.963,13.643 8.235,13.591 L13.667,12.550 L15.716,7.883 C15.827,7.631 16.123,7.515 16.376,7.625 C16.631,7.735 16.747,8.029 16.636,8.281 L14.482,13.189 ZM6.901,14.815 L6.568,14.869 C6.541,14.874 6.514,14.876 6.487,14.876 C6.245,14.876 6.032,14.702 5.992,14.457 C5.948,14.186 6.134,13.930 6.407,13.885 L6.740,13.832 C7.015,13.785 7.272,13.972 7.316,14.244 C7.360,14.515 7.175,14.771 6.901,14.815 Z"/>
</svg>