<svg 
 xmlns="http://www.w3.org/2000/svg"
 xmlns:xlink="http://www.w3.org/1999/xlink"
 width="0.306in" height="0.583in">
<path fill-rule="evenodd"  fill="rgb(255, 67, 30)"
 d="M11.999,11.901 C17.087,12.354 21.075,16.631 21.061,21.840 L21.033,31.799 C21.025,34.473 19.977,36.990 18.081,38.887 C16.184,40.783 13.667,41.831 10.993,41.839 L10.528,41.840 C5.008,41.856 0.529,37.378 0.545,31.857 L0.573,21.897 C0.580,19.224 1.629,16.707 3.525,14.810 C5.226,13.109 7.428,12.097 9.794,11.900 C9.406,10.793 9.234,9.130 10.022,6.832 C10.862,4.383 9.544,1.970 9.530,1.946 C9.262,1.466 9.437,0.856 9.918,0.585 C10.401,0.314 11.009,0.485 11.277,0.965 C11.350,1.095 13.039,4.187 11.912,7.471 C11.021,10.071 11.667,11.426 11.999,11.901 ZM2.543,31.852 C2.531,36.270 6.115,39.855 10.534,39.842 L10.999,39.840 C13.139,39.835 15.153,38.995 16.671,37.478 C18.189,35.960 19.028,33.946 19.034,31.805 L19.055,24.263 C11.329,26.476 5.075,25.131 2.564,24.370 L2.543,31.852 ZM2.572,21.892 L2.567,23.317 C4.760,24.002 11.214,25.540 19.058,23.222 L19.062,21.846 C19.075,17.428 15.490,13.843 11.072,13.855 L10.607,13.857 C8.467,13.863 6.452,14.702 4.934,16.220 C3.417,17.737 2.578,19.752 2.572,21.892 ZM11.074,19.352 L11.067,21.851 C11.067,21.990 11.010,22.115 10.920,22.205 C10.829,22.296 10.704,22.352 10.566,22.352 C10.290,22.353 10.067,22.131 10.068,21.854 L10.074,19.355 C10.075,19.079 10.299,18.855 10.575,18.854 C10.851,18.853 11.074,19.076 11.074,19.352 ZM10.584,37.318 C10.860,37.317 11.084,37.540 11.083,37.816 C11.083,37.954 11.026,38.079 10.935,38.170 C10.845,38.260 10.720,38.317 10.582,38.317 L10.252,38.318 C9.977,38.319 9.754,38.096 9.754,37.820 C9.755,37.544 9.979,37.320 10.255,37.319 L10.584,37.318 ZM8.617,38.126 C5.354,37.544 3.669,35.112 3.744,31.094 L3.751,28.875 C3.752,28.599 3.976,28.375 4.252,28.374 C4.528,28.374 4.751,28.597 4.750,28.872 L4.744,31.099 C4.678,34.619 6.042,36.650 8.799,37.142 C9.070,37.191 9.249,37.450 9.200,37.722 C9.180,37.826 9.130,37.917 9.061,37.986 C8.948,38.099 8.785,38.156 8.617,38.126 Z"/>
</svg>